<svg xmlns="http://www.w3.org/2000/svg" viewBox="0 0 16 16" fill="currentColor" aria-hidden="true">
  <path d="M8 0a8 8 0 0 0-2.53 15.59c.4.07.55-.17.55-.38l-.01-1.49c-2.01.44-2.53-.49-2.69-.94a2.1 2.1 0 0 0-.88-1.16c-.72-.49.06-.48.06-.48a1.66 1.66 0 0 1 1.21.81 1.68 1.68 0 0 0 2.3.66 1.68 1.68 0 0 1 .5-1.06c-1.78-.2-3.64-.89-3.64-3.95A3.1 3.1 0 0 1 3.69 5.4a2.88 2.88 0 0 1 .08-2.04s.67-.21 2.2.82a7.5 7.5 0 0 1 4 0c1.53-1.03 2.2-.82 2.2-.82.3.66.33 1.44.08 2.04a3.1 3.1 0 0 1 .82 2.15c0 3.07-1.87 3.75-3.66 3.95a1.87 1.87 0 0 1 .54 1.45l-.01 2.14c0 .21.14.46.55.38A8 8 0 0 0 8 0Z"/>
</svg>
